<mxfile host="app.diagrams.net" agent="Mozilla/5.0 (Windows NT 10.0; Win64; x64) AppleWebKit/537.36 (KHTML, like Gecko) Chrome/128.0.0.0 Safari/537.36" version="24.7.12">
  <diagram name="페이지-1" id="x2pTsX8chSoiMSWWwsY3">
    <mxGraphModel dx="1434" dy="746" grid="1" gridSize="10" guides="1" tooltips="1" connect="1" arrows="1" fold="1" page="1" pageScale="1" pageWidth="827" pageHeight="1169" math="0" shadow="0">
      <root>
        <mxCell id="0" />
        <mxCell id="1" parent="0" />
        <mxCell id="0LSO6oO1EHj7VSlVbhn--16" value="" style="rounded=0;whiteSpace=wrap;html=1;" vertex="1" parent="1">
          <mxGeometry x="100" width="380" height="350" as="geometry" />
        </mxCell>
        <mxCell id="0LSO6oO1EHj7VSlVbhn--1" value="서버" style="shape=umlActor;verticalLabelPosition=bottom;verticalAlign=top;html=1;outlineConnect=0;" vertex="1" parent="1">
          <mxGeometry x="510" y="110" width="30" height="60" as="geometry" />
        </mxCell>
        <mxCell id="0LSO6oO1EHj7VSlVbhn--2" value="기업" style="shape=umlActor;verticalLabelPosition=bottom;verticalAlign=top;html=1;outlineConnect=0;" vertex="1" parent="1">
          <mxGeometry x="60" y="250" width="30" height="60" as="geometry" />
        </mxCell>
        <mxCell id="0LSO6oO1EHj7VSlVbhn--3" value="사용자" style="shape=umlActor;verticalLabelPosition=bottom;verticalAlign=top;html=1;outlineConnect=0;" vertex="1" parent="1">
          <mxGeometry x="60" y="30" width="30" height="60" as="geometry" />
        </mxCell>
        <mxCell id="0LSO6oO1EHj7VSlVbhn--6" value="회사 모집 공고 조회" style="ellipse;whiteSpace=wrap;html=1;" vertex="1" parent="1">
          <mxGeometry x="120" y="10" width="160" height="30" as="geometry" />
        </mxCell>
        <mxCell id="0LSO6oO1EHj7VSlVbhn--7" value="합격 자소서 조회" style="ellipse;whiteSpace=wrap;html=1;" vertex="1" parent="1">
          <mxGeometry x="120" y="45" width="160" height="30" as="geometry" />
        </mxCell>
        <mxCell id="0LSO6oO1EHj7VSlVbhn--8" value="입사 지원 현황 조회" style="ellipse;whiteSpace=wrap;html=1;" vertex="1" parent="1">
          <mxGeometry x="120" y="80" width="160" height="30" as="geometry" />
        </mxCell>
        <mxCell id="0LSO6oO1EHj7VSlVbhn--9" value="지원자 조회" style="ellipse;whiteSpace=wrap;html=1;" vertex="1" parent="1">
          <mxGeometry x="120" y="290" width="160" height="30" as="geometry" />
        </mxCell>
        <mxCell id="0LSO6oO1EHj7VSlVbhn--10" value="기업 관리" style="ellipse;whiteSpace=wrap;html=1;" vertex="1" parent="1">
          <mxGeometry x="310" y="100" width="160" height="30" as="geometry" />
        </mxCell>
        <mxCell id="0LSO6oO1EHj7VSlVbhn--11" value="게시물 관리" style="ellipse;whiteSpace=wrap;html=1;" vertex="1" parent="1">
          <mxGeometry x="310" y="140" width="160" height="30" as="geometry" />
        </mxCell>
        <mxCell id="0LSO6oO1EHj7VSlVbhn--12" value="맞춤 추천 서비스" style="ellipse;whiteSpace=wrap;html=1;" vertex="1" parent="1">
          <mxGeometry x="310" y="190" width="160" height="30" as="geometry" />
        </mxCell>
        <mxCell id="0LSO6oO1EHj7VSlVbhn--13" value="사용자 관리" style="ellipse;whiteSpace=wrap;html=1;" vertex="1" parent="1">
          <mxGeometry x="310" y="60" width="160" height="30" as="geometry" />
        </mxCell>
        <mxCell id="0LSO6oO1EHj7VSlVbhn--14" value="모집 공고 관리" style="ellipse;whiteSpace=wrap;html=1;" vertex="1" parent="1">
          <mxGeometry x="120" y="250" width="160" height="30" as="geometry" />
        </mxCell>
        <mxCell id="0LSO6oO1EHj7VSlVbhn--15" value="이력서 관리" style="ellipse;whiteSpace=wrap;html=1;" vertex="1" parent="1">
          <mxGeometry x="120" y="120" width="160" height="30" as="geometry" />
        </mxCell>
      </root>
    </mxGraphModel>
  </diagram>
</mxfile>
